<svg xmlns="http://www.w3.org/2000/svg" viewBox="0 0 375 375" width="512" height="512">
  <rect width="375" height="375" fill="white"/>
  <g transform="translate(50, 79)">
    <g clip-path="url(#clip1)">
      <path fill="#341566" d="M 18.714844 161.78125 C 18.714844 161.78125 0.949219 123.546875 25.394531 93.425781 C 62.378906 47.847656 107.988281 53.101562 153.023438 46.667969 C 176.460938 43.320312 200.492188 36.882812 219.335938 21.96875 C 226.632812 16.191406 233.527344 8.417969 238.164062 0.335938 C 228.886719 41.292969 188.539062 62.03125 149.460938 67.859375 C 115.058594 72.992188 76.203125 65.789062 43.265625 93.988281 C 36.304688 99.945312 29.855469 107.476562 25.871094 115.734375 C 14.421875 139.46875 18.714844 161.78125 18.714844 161.78125 Z"/>
    </g>
    <g clip-path="url(#clip2)">
      <path fill="#341566" d="M 38.644531 188.949219 C 38.644531 188.949219 20.878906 150.71875 45.320312 120.597656 C 82.304688 75.015625 127.914062 80.273438 172.949219 73.839844 C 196.386719 70.488281 220.417969 64.050781 239.261719 49.136719 C 246.5625 43.363281 253.453125 35.585938 258.089844 27.503906 C 248.8125 68.464844 208.46875 89.203125 169.386719 95.03125 C 134.984375 100.160156 96.128906 92.960938 63.191406 121.15625 C 56.230469 127.117188 49.78125 134.648438 45.796875 142.90625 C 34.351562 166.640625 38.644531 188.949219 38.644531 188.949219 Z"/>
    </g>
    <g clip-path="url(#clip3)">
      <path fill="#341566" d="M 54.949219 216.121094 C 54.949219 216.121094 37.183594 177.890625 61.625 147.765625 C 98.609375 102.1875 144.21875 107.445312 189.253906 101.011719 C 212.695312 97.660156 236.726562 91.222656 255.570312 76.308594 C 262.867188 70.535156 269.757812 62.757812 274.398438 54.675781 C 265.117188 95.636719 224.773438 116.375 185.691406 122.203125 C 151.289062 127.332031 112.433594 120.132812 79.496094 148.328125 C 72.539062 154.289062 66.085938 161.820312 62.101562 170.078125 C 50.65625 193.8125 54.949219 216.121094 54.949219 216.121094 Z"/>
    </g>
  </g>
  <defs>
    <clipPath id="clip1">
      <path d="M 12 0.335938 L 238.191406 0.335938 L 238.191406 161.773438 L 12 161.773438 Z"/>
    </clipPath>
    <clipPath id="clip2">
      <path d="M 32 27.503906 L 258.117188 27.503906 L 258.117188 188.941406 L 32 188.941406 Z"/>
    </clipPath>
    <clipPath id="clip3">
      <path d="M 48 54.675781 L 274.425781 54.675781 L 274.425781 216.113281 L 48 216.113281 Z"/>
    </clipPath>
  </defs>
</svg>
